<svg width="505" height="505" viewBox="0 0 505 505" fill="none" xmlns="http://www.w3.org/2000/svg">
<g clip-path="url(#clip0_353_1131)">
<g opacity="0.8">
<path fill-rule="evenodd" clip-rule="evenodd" d="M145.993 375.015C110.098 375.015 81.0002 404.113 81.0002 440.007C81.0002 475.902 110.098 505 145.993 505C181.887 505 210.986 475.902 210.986 440.007C210.986 426.346 206.77 413.669 199.57 403.206L314.389 301.212C325.853 311.353 340.925 317.509 357.434 317.509C393.329 317.509 422.427 288.41 422.427 252.516C422.427 216.622 393.329 187.523 357.434 187.523C341.534 187.523 326.967 193.233 315.673 202.714L200.499 100.406C207.132 90.2178 210.986 78.0552 210.986 64.9925C210.986 29.098 181.887 -0.000173617 145.993 -0.000176755C110.098 -0.000179893 81.0002 29.098 81.0002 64.9925C81.0002 100.887 110.098 129.985 145.993 129.985C159.697 129.985 172.41 125.744 182.892 118.502L299.834 222.382C295.112 231.389 292.441 241.641 292.441 252.516C292.441 262.773 294.817 272.475 299.049 281.101L181.472 385.544C171.271 378.885 159.084 375.015 145.993 375.015Z" fill="#00C57A"/>
</g>
</g>
<defs>
<clipPath id="clip0_353_1131">
<rect width="505" height="505" fill="white"/>
</clipPath>
</defs>
</svg>
